<mxfile host="app.diagrams.net" agent="Mozilla/5.0 (Windows NT 10.0; Win64; x64) AppleWebKit/537.36 (KHTML, like Gecko) Chrome/138.0.0.0 Safari/537.36" version="28.0.0">
  <diagram name="Page-1" id="6JbigkQtD5oib6Z55_C1">
    <mxGraphModel dx="2837" dy="1193" grid="1" gridSize="10" guides="1" tooltips="1" connect="1" arrows="1" fold="1" page="1" pageScale="1" pageWidth="800" pageHeight="500" math="0" shadow="0">
      <root>
        <mxCell id="0" />
        <mxCell id="1" parent="0" />
        <mxCell id="k9HfRmUis4oXZjniWQAY-6" value="&lt;p style=&quot;margin:0px;margin-top:4px;text-align:center;&quot;&gt;&lt;b&gt;&lt;i&gt;Input&lt;/i&gt;&lt;/b&gt;&lt;/p&gt;&lt;hr&gt;&lt;hr size=&quot;1&quot; style=&quot;border-style:solid;&quot;&gt;+readLines(fileName : String, lineStorage : LineStorage) : void&lt;div&gt;+addWords(lineNumber : int, parsedWords : List&amp;lt;String&amp;gt;, lineStorage : LineStorage) : void&lt;/div&gt;&lt;div&gt;&lt;i&gt;#setWordDelimiter(lineStorage : LineStorage) : void&lt;/i&gt;&lt;/div&gt;&lt;div&gt;&lt;i&gt;#parseWords(text : String) : List&amp;lt;String.&amp;gt;&lt;/i&gt;&lt;/div&gt;&lt;div&gt;&lt;br&gt;&lt;div&gt;&lt;br&gt;&lt;/div&gt;&lt;div&gt;&lt;br&gt;&lt;/div&gt;&lt;/div&gt;" style="verticalAlign=top;align=left;overflow=fill;html=1;whiteSpace=wrap;" parent="1" vertex="1">
          <mxGeometry x="100" y="470" width="310" height="130" as="geometry" />
        </mxCell>
        <mxCell id="k9HfRmUis4oXZjniWQAY-8" value="&lt;p style=&quot;margin:0px;margin-top:4px;text-align:center;&quot;&gt;&lt;i&gt;&amp;lt;&amp;lt;Interface&amp;gt;&amp;gt;&lt;/i&gt;&lt;br&gt;&lt;b&gt;Output&lt;/b&gt;&lt;/p&gt;&lt;hr&gt;&lt;i&gt;+writeLines(lines : List&amp;lt;String&amp;gt;, outputName : String) : void&lt;br&gt;&lt;/i&gt;&lt;hr&gt;&lt;div&gt;&lt;br&gt;&lt;/div&gt;" style="verticalAlign=top;align=left;overflow=fill;html=1;whiteSpace=wrap;" parent="1" vertex="1">
          <mxGeometry x="-560" y="680" width="250" height="100" as="geometry" />
        </mxCell>
        <mxCell id="k9HfRmUis4oXZjniWQAY-12" value="&lt;p style=&quot;margin:0px;margin-top:4px;text-align:center;&quot;&gt;ConsoleOutput&lt;/p&gt;&lt;hr&gt;&lt;hr&gt;+writeLines(lines : List&amp;lt;String&amp;gt;, outputName: String) : void&lt;div&gt;&lt;br&gt;&lt;/div&gt;" style="verticalAlign=top;align=left;overflow=fill;html=1;whiteSpace=wrap;" parent="1" vertex="1">
          <mxGeometry x="-750" y="850" width="270" height="70" as="geometry" />
        </mxCell>
        <mxCell id="k9HfRmUis4oXZjniWQAY-15" value="&lt;p style=&quot;margin:0px;margin-top:4px;text-align:center;&quot;&gt;&lt;i&gt;Sorter&lt;/i&gt;&lt;/p&gt;&lt;hr&gt;#sortedLines : List&amp;lt;String&amp;gt;&lt;div&gt;&lt;u&gt;#shifter : Shifter&lt;/u&gt;&lt;br&gt;&lt;hr&gt;+Sorter(shifter : Shifter) : void&lt;/div&gt;&lt;div&gt;+getSortedLines() : List&amp;lt;String&amp;gt;&lt;/div&gt;&lt;div&gt;-prependIndexIntoSortedLines() : void&lt;/div&gt;&lt;div&gt;&lt;i&gt;#generateSortedLines() : void&lt;/i&gt;&lt;/div&gt;" style="verticalAlign=top;align=left;overflow=fill;html=1;whiteSpace=wrap;" parent="1" vertex="1">
          <mxGeometry x="1240" y="645" width="230" height="140" as="geometry" />
        </mxCell>
        <mxCell id="k9HfRmUis4oXZjniWQAY-16" value="&lt;p style=&quot;margin:0px;margin-top:4px;text-align:center;&quot;&gt;AlphabeticalSorter&lt;/p&gt;&lt;hr&gt;&lt;hr&gt;#generateSortedLines() : void&lt;div&gt;&lt;br&gt;&lt;/div&gt;" style="verticalAlign=top;align=left;overflow=fill;html=1;whiteSpace=wrap;" parent="1" vertex="1">
          <mxGeometry x="1272.5" y="820" width="165" height="70" as="geometry" />
        </mxCell>
        <mxCell id="k9HfRmUis4oXZjniWQAY-17" value="" style="endArrow=block;dashed=1;endFill=0;endSize=12;html=1;rounded=0;exitX=0.5;exitY=0;exitDx=0;exitDy=0;entryX=0.5;entryY=1;entryDx=0;entryDy=0;" parent="1" source="k9HfRmUis4oXZjniWQAY-16" target="k9HfRmUis4oXZjniWQAY-15" edge="1">
          <mxGeometry width="160" relative="1" as="geometry">
            <mxPoint x="990" y="870" as="sourcePoint" />
            <mxPoint x="940" y="820" as="targetPoint" />
            <Array as="points" />
          </mxGeometry>
        </mxCell>
        <mxCell id="k9HfRmUis4oXZjniWQAY-18" value="&lt;p style=&quot;margin:0px;margin-top:4px;text-align:center;&quot;&gt;Shifter&lt;/p&gt;&lt;div&gt;&lt;hr&gt;&lt;u&gt;-lineStorage : LineStorage&lt;/u&gt;&lt;/div&gt;&lt;div&gt;&lt;u&gt;-shiftedLines : List&amp;lt;String&amp;gt;&lt;br&gt;&lt;/u&gt;&lt;hr&gt;+Shifter(lineStorage : LineStorage) : void&lt;/div&gt;&lt;div&gt;+getShiftedLines() : List&amp;lt;String&amp;gt;&lt;/div&gt;&lt;div&gt;-populateShiftedLines() : void&lt;/div&gt;" style="verticalAlign=top;align=left;overflow=fill;html=1;whiteSpace=wrap;" parent="1" vertex="1">
          <mxGeometry x="900" y="650" width="240" height="130" as="geometry" />
        </mxCell>
        <mxCell id="k9HfRmUis4oXZjniWQAY-20" value="&lt;p style=&quot;margin:0px;margin-top:4px;text-align:center;&quot;&gt;KeywordSearch&lt;/p&gt;&lt;hr&gt;&lt;u&gt;-lineStorage : LineStorage&lt;/u&gt;&lt;div&gt;&lt;u&gt;-keywords : Map&amp;lt;String, List&amp;lt;String&amp;gt;&amp;gt;&lt;/u&gt;&lt;br&gt;&lt;div&gt;&lt;hr&gt;+KeywordSearch(lineStorage : LineStorage) : void&lt;/div&gt;&lt;div&gt;+getKeywordLines(keyword : String) : List&amp;lt;String&amp;gt;&lt;/div&gt;&lt;div&gt;&lt;br&gt;&lt;/div&gt;&lt;/div&gt;" style="verticalAlign=top;align=left;overflow=fill;html=1;whiteSpace=wrap;" parent="1" vertex="1">
          <mxGeometry x="670" y="380" width="280" height="120" as="geometry" />
        </mxCell>
        <mxCell id="k9HfRmUis4oXZjniWQAY-21" value="&lt;p style=&quot;margin:0px;margin-top:4px;text-align:center;&quot;&gt;LineStorage&lt;/p&gt;&lt;hr&gt;&lt;u&gt;-lineWords : List&amp;lt;List&amp;lt;String&amp;gt;&amp;gt;&lt;/u&gt;&lt;div&gt;&lt;u&gt;-wordDelimiter : String&lt;/u&gt;&lt;br&gt;&lt;hr&gt;+LineStorage() : void&lt;/div&gt;&lt;div&gt;+getLineCount() : int&lt;/div&gt;&lt;div&gt;+addWord(lineNumber : int, word : String) : void&lt;/div&gt;&lt;div&gt;+getWordCount(lineNumber : int) : int&lt;/div&gt;&lt;div&gt;+getWord(lineNumber : int, wordIndex : int) : String&lt;/div&gt;&lt;div&gt;+setWordDelimiter(wordDelimiter : String) : void&lt;/div&gt;&lt;div&gt;+getLine(lineNumber : int) : String&lt;/div&gt;" style="verticalAlign=top;align=left;overflow=fill;html=1;whiteSpace=wrap;" parent="1" vertex="1">
          <mxGeometry x="637.5" y="890" width="337.5" height="180" as="geometry" />
        </mxCell>
        <mxCell id="k9HfRmUis4oXZjniWQAY-27" value="" style="endArrow=block;dashed=1;endFill=0;endSize=12;html=1;rounded=0;exitX=0.5;exitY=0;exitDx=0;exitDy=0;entryX=0.5;entryY=1;entryDx=0;entryDy=0;" parent="1" source="k9HfRmUis4oXZjniWQAY-12" target="k9HfRmUis4oXZjniWQAY-8" edge="1">
          <mxGeometry width="160" relative="1" as="geometry">
            <mxPoint x="540" y="1530" as="sourcePoint" />
            <mxPoint x="700" y="1530" as="targetPoint" />
          </mxGeometry>
        </mxCell>
        <mxCell id="k9HfRmUis4oXZjniWQAY-28" value="&lt;p style=&quot;margin:0px;margin-top:4px;text-align:center;&quot;&gt;Main&lt;/p&gt;&lt;hr&gt;&lt;hr&gt;&lt;u&gt;+main (args : String[]) : void&lt;br&gt;&lt;/u&gt;&lt;div&gt;&lt;br&gt;&lt;/div&gt;" style="verticalAlign=top;align=left;overflow=fill;html=1;whiteSpace=wrap;" parent="1" vertex="1">
          <mxGeometry x="-200" y="410" width="162.5" height="80" as="geometry" />
        </mxCell>
        <mxCell id="JFAIEYtNB2LarUCZhCXe-1" value="&lt;p style=&quot;margin:0px;margin-top:4px;text-align:center;&quot;&gt;&lt;i style=&quot;&quot;&gt;Indexer&lt;/i&gt;&lt;/p&gt;&lt;div&gt;&lt;hr&gt;&lt;u&gt;-lineStorage : LineStorage&lt;/u&gt;&lt;/div&gt;&lt;div&gt;&lt;u&gt;-indexedWords : List&amp;lt;String&amp;gt;&lt;/u&gt;&lt;br&gt;&lt;hr&gt;+Indexer(lineStorage : LineStorage) : void&lt;/div&gt;&lt;div&gt;+getIndexedWords : List&amp;lt;String&amp;gt;&lt;/div&gt;&lt;div&gt;&lt;br&gt;&lt;/div&gt;" style="verticalAlign=top;align=left;overflow=fill;html=1;whiteSpace=wrap;" parent="1" vertex="1">
          <mxGeometry x="-120" y="750" width="250" height="110" as="geometry" />
        </mxCell>
        <mxCell id="JFAIEYtNB2LarUCZhCXe-3" value="&lt;p style=&quot;margin:0px;margin-top:4px;text-align:center;&quot;&gt;GenericIndexer&lt;/p&gt;&lt;hr&gt;&lt;hr&gt;&lt;br&gt;&lt;div&gt;&lt;br&gt;&lt;/div&gt;" style="verticalAlign=top;align=left;overflow=fill;html=1;whiteSpace=wrap;" parent="1" vertex="1">
          <mxGeometry x="-270" y="990" width="130" height="60" as="geometry" />
        </mxCell>
        <mxCell id="JFAIEYtNB2LarUCZhCXe-5" value="Extends" style="endArrow=block;endSize=16;endFill=0;html=1;rounded=0;exitX=0.5;exitY=0;exitDx=0;exitDy=0;entryX=0.5;entryY=1;entryDx=0;entryDy=0;" parent="1" source="JFAIEYtNB2LarUCZhCXe-3" target="JFAIEYtNB2LarUCZhCXe-1" edge="1">
          <mxGeometry width="160" relative="1" as="geometry">
            <mxPoint x="-1075" y="1400" as="sourcePoint" />
            <mxPoint x="-805" y="865" as="targetPoint" />
          </mxGeometry>
        </mxCell>
        <mxCell id="rZ3ON5Htc5HRTa7LvLeY-14" value="Extends" style="endArrow=block;endSize=16;endFill=0;html=1;rounded=0;exitX=0.5;exitY=0;exitDx=0;exitDy=0;entryX=0.5;entryY=1;entryDx=0;entryDy=0;" parent="1" source="k9HfRmUis4oXZjniWQAY-9" target="k9HfRmUis4oXZjniWQAY-6" edge="1">
          <mxGeometry width="160" relative="1" as="geometry">
            <mxPoint x="680" y="1230" as="sourcePoint" />
            <mxPoint x="840" y="1230" as="targetPoint" />
          </mxGeometry>
        </mxCell>
        <mxCell id="cKuu_-djgyyRTVqPCM6f-5" value="" style="endArrow=diamondThin;endFill=0;endSize=24;html=1;rounded=0;exitX=0.5;exitY=0;exitDx=0;exitDy=0;entryX=0.5;entryY=1;entryDx=0;entryDy=0;" parent="1" source="k9HfRmUis4oXZjniWQAY-21" target="k9HfRmUis4oXZjniWQAY-18" edge="1">
          <mxGeometry width="160" relative="1" as="geometry">
            <mxPoint x="730" y="870" as="sourcePoint" />
            <mxPoint x="890" y="870" as="targetPoint" />
          </mxGeometry>
        </mxCell>
        <mxCell id="cKuu_-djgyyRTVqPCM6f-7" value="" style="endArrow=diamondThin;endFill=0;endSize=24;html=1;rounded=0;exitX=1;exitY=0.5;exitDx=0;exitDy=0;entryX=0;entryY=0.5;entryDx=0;entryDy=0;" parent="1" source="k9HfRmUis4oXZjniWQAY-18" target="k9HfRmUis4oXZjniWQAY-15" edge="1">
          <mxGeometry width="160" relative="1" as="geometry">
            <mxPoint x="730" y="1130" as="sourcePoint" />
            <mxPoint x="970" y="805" as="targetPoint" />
          </mxGeometry>
        </mxCell>
        <mxCell id="cKuu_-djgyyRTVqPCM6f-8" value="Use" style="endArrow=open;endSize=12;dashed=1;html=1;rounded=0;exitX=1;exitY=0.5;exitDx=0;exitDy=0;entryX=0.25;entryY=0;entryDx=0;entryDy=0;" parent="1" source="k9HfRmUis4oXZjniWQAY-6" target="k9HfRmUis4oXZjniWQAY-21" edge="1">
          <mxGeometry width="160" relative="1" as="geometry">
            <mxPoint x="600" y="970" as="sourcePoint" />
            <mxPoint x="760" y="970" as="targetPoint" />
            <Array as="points">
              <mxPoint x="610" y="750" />
            </Array>
          </mxGeometry>
        </mxCell>
        <mxCell id="FMbkumQulPBo_XJ0v1sx-8" style="edgeStyle=none;curved=1;rounded=0;orthogonalLoop=1;jettySize=auto;html=1;exitX=0.5;exitY=0;exitDx=0;exitDy=0;fontSize=12;startSize=8;endSize=8;" parent="1" source="JFAIEYtNB2LarUCZhCXe-3" target="JFAIEYtNB2LarUCZhCXe-3" edge="1">
          <mxGeometry relative="1" as="geometry" />
        </mxCell>
        <mxCell id="FMbkumQulPBo_XJ0v1sx-9" value="" style="endArrow=diamondThin;endFill=0;endSize=24;html=1;rounded=0;fontSize=12;curved=1;entryX=0.5;entryY=1;entryDx=0;entryDy=0;exitX=0.5;exitY=0;exitDx=0;exitDy=0;" parent="1" source="k9HfRmUis4oXZjniWQAY-21" target="k9HfRmUis4oXZjniWQAY-20" edge="1">
          <mxGeometry width="160" relative="1" as="geometry">
            <mxPoint x="500" y="990" as="sourcePoint" />
            <mxPoint x="570" y="1190" as="targetPoint" />
          </mxGeometry>
        </mxCell>
        <mxCell id="eILL7YWSkd2Ixa6N1k25-1" value="" style="endArrow=diamondThin;endFill=0;endSize=24;html=1;rounded=0;fontSize=12;curved=1;entryX=0.75;entryY=1;entryDx=0;entryDy=0;exitX=0;exitY=0.5;exitDx=0;exitDy=0;" parent="1" source="k9HfRmUis4oXZjniWQAY-21" edge="1">
          <mxGeometry width="160" relative="1" as="geometry">
            <mxPoint x="631.25" y="970" as="sourcePoint" />
            <mxPoint x="130" y="780" as="targetPoint" />
            <Array as="points">
              <mxPoint x="440" y="1180" />
              <mxPoint x="290" y="890" />
            </Array>
          </mxGeometry>
        </mxCell>
        <mxCell id="oOKoA3ghqxl1m4UrUj5r-1" value="&lt;p style=&quot;margin:0px;margin-top:4px;text-align:center;&quot;&gt;&lt;i style=&quot;&quot;&gt;IndexerDecorator&lt;/i&gt;&lt;/p&gt;&lt;div&gt;&lt;/div&gt;&lt;div&gt;&lt;hr&gt;-indexer : Indexer&lt;br&gt;&lt;hr&gt;&lt;/div&gt;&lt;div&gt;+IndexerDecorator(lineStorage :LineStorage, indexer : Indexer) : void&lt;/div&gt;&lt;div&gt;+getIndexedWords : List&amp;lt;String&amp;gt;&lt;/div&gt;" style="verticalAlign=top;align=left;overflow=fill;html=1;whiteSpace=wrap;" parent="1" vertex="1">
          <mxGeometry x="-90" y="960" width="240" height="120" as="geometry" />
        </mxCell>
        <mxCell id="oOKoA3ghqxl1m4UrUj5r-2" value="Extends" style="endArrow=block;endSize=16;endFill=0;html=1;rounded=0;exitX=0.5;exitY=0;exitDx=0;exitDy=0;" parent="1" source="oOKoA3ghqxl1m4UrUj5r-1" edge="1">
          <mxGeometry width="160" relative="1" as="geometry">
            <mxPoint x="10" y="1020" as="sourcePoint" />
            <mxPoint y="860" as="targetPoint" />
          </mxGeometry>
        </mxCell>
        <mxCell id="oOKoA3ghqxl1m4UrUj5r-3" value="" style="endArrow=diamondThin;endFill=0;endSize=24;html=1;rounded=0;exitX=1;exitY=0.5;exitDx=0;exitDy=0;entryX=1;entryY=0.5;entryDx=0;entryDy=0;" parent="1" source="JFAIEYtNB2LarUCZhCXe-1" target="oOKoA3ghqxl1m4UrUj5r-1" edge="1">
          <mxGeometry width="160" relative="1" as="geometry">
            <mxPoint x="260" y="920" as="sourcePoint" />
            <mxPoint x="420" y="920" as="targetPoint" />
            <Array as="points">
              <mxPoint x="210" y="890" />
            </Array>
          </mxGeometry>
        </mxCell>
        <mxCell id="oOKoA3ghqxl1m4UrUj5r-4" value="&lt;p style=&quot;margin:0px;margin-top:4px;text-align:center;&quot;&gt;FilterIndexerDecorator&lt;/p&gt;&lt;div&gt;&lt;hr&gt;+IndexerDecorator(lineStorage :LineStorage, indexer : Indexer, filterWords : List&amp;lt;String&amp;gt;) : void&lt;hr&gt;&lt;/div&gt;&lt;div&gt;+getIndexedWords : List&amp;lt;String&amp;gt;&lt;/div&gt;" style="verticalAlign=top;align=left;overflow=fill;html=1;whiteSpace=wrap;" parent="1" vertex="1">
          <mxGeometry x="-118.75" y="1160" width="297.5" height="100" as="geometry" />
        </mxCell>
        <mxCell id="oOKoA3ghqxl1m4UrUj5r-5" value="Extends" style="endArrow=block;endSize=16;endFill=0;html=1;rounded=0;exitX=0.5;exitY=0;exitDx=0;exitDy=0;entryX=0.5;entryY=1;entryDx=0;entryDy=0;" parent="1" source="oOKoA3ghqxl1m4UrUj5r-4" target="oOKoA3ghqxl1m4UrUj5r-1" edge="1">
          <mxGeometry width="160" relative="1" as="geometry">
            <mxPoint x="260" y="920" as="sourcePoint" />
            <mxPoint x="420" y="920" as="targetPoint" />
          </mxGeometry>
        </mxCell>
        <mxCell id="mYKFRkc40-iws_3uBY47-6" style="edgeStyle=none;curved=1;rounded=0;orthogonalLoop=1;jettySize=auto;html=1;entryX=0;entryY=0.5;entryDx=0;entryDy=0;fontSize=12;startSize=8;endSize=8;" edge="1" parent="1" source="mYKFRkc40-iws_3uBY47-5" target="JFAIEYtNB2LarUCZhCXe-3">
          <mxGeometry relative="1" as="geometry" />
        </mxCell>
        <mxCell id="mYKFRkc40-iws_3uBY47-5" value="Concrete Component" style="rounded=0;whiteSpace=wrap;html=1;" vertex="1" parent="1">
          <mxGeometry x="-400" y="1020" width="110" height="30" as="geometry" />
        </mxCell>
        <mxCell id="mYKFRkc40-iws_3uBY47-7" value="Base Decorator" style="rounded=0;whiteSpace=wrap;html=1;" vertex="1" parent="1">
          <mxGeometry x="180" y="1020" width="110" height="30" as="geometry" />
        </mxCell>
        <mxCell id="mYKFRkc40-iws_3uBY47-8" style="edgeStyle=none;curved=1;rounded=0;orthogonalLoop=1;jettySize=auto;html=1;entryX=1;entryY=0.667;entryDx=0;entryDy=0;entryPerimeter=0;fontSize=12;startSize=8;endSize=8;" edge="1" parent="1" source="mYKFRkc40-iws_3uBY47-7" target="oOKoA3ghqxl1m4UrUj5r-1">
          <mxGeometry relative="1" as="geometry" />
        </mxCell>
        <mxCell id="mYKFRkc40-iws_3uBY47-10" style="edgeStyle=none;curved=1;rounded=0;orthogonalLoop=1;jettySize=auto;html=1;fontSize=12;startSize=8;endSize=8;" edge="1" parent="1" source="mYKFRkc40-iws_3uBY47-9" target="oOKoA3ghqxl1m4UrUj5r-4">
          <mxGeometry relative="1" as="geometry" />
        </mxCell>
        <mxCell id="mYKFRkc40-iws_3uBY47-9" value="Concrete Decorator" style="rounded=0;whiteSpace=wrap;html=1;" vertex="1" parent="1">
          <mxGeometry x="-25" y="1320" width="110" height="30" as="geometry" />
        </mxCell>
        <mxCell id="mYKFRkc40-iws_3uBY47-11" value="Component" style="rounded=0;whiteSpace=wrap;html=1;" vertex="1" parent="1">
          <mxGeometry x="-60" y="670" width="110" height="30" as="geometry" />
        </mxCell>
        <mxCell id="mYKFRkc40-iws_3uBY47-12" style="edgeStyle=none;curved=1;rounded=0;orthogonalLoop=1;jettySize=auto;html=1;fontSize=12;startSize=8;endSize=8;" edge="1" parent="1" source="mYKFRkc40-iws_3uBY47-11">
          <mxGeometry relative="1" as="geometry">
            <mxPoint x="-5" y="750" as="targetPoint" />
          </mxGeometry>
        </mxCell>
        <mxCell id="mYKFRkc40-iws_3uBY47-13" value="&lt;p style=&quot;margin:0px;margin-top:4px;text-align:center;&quot;&gt;CSVInput&lt;/p&gt;&lt;hr&gt;&lt;hr&gt;&lt;div&gt;#setWordDelimiter(lineStorage : LineStorage) : void&lt;/div&gt;&lt;div&gt;#parseWords(text : String) : List&amp;lt;String.&amp;gt;&lt;/div&gt;" style="verticalAlign=top;align=left;overflow=fill;html=1;whiteSpace=wrap;" vertex="1" parent="1">
          <mxGeometry x="330" y="790" width="297.5" height="80" as="geometry" />
        </mxCell>
        <mxCell id="mYKFRkc40-iws_3uBY47-14" value="Extends" style="endArrow=block;endSize=16;endFill=0;html=1;rounded=0;exitX=0.5;exitY=0;exitDx=0;exitDy=0;entryX=0.5;entryY=1;entryDx=0;entryDy=0;" edge="1" parent="1" source="k9HfRmUis4oXZjniWQAY-9" target="k9HfRmUis4oXZjniWQAY-6">
          <mxGeometry x="0.0286" width="160" relative="1" as="geometry">
            <mxPoint x="980" y="1355" as="sourcePoint" />
            <mxPoint x="1186" y="1250" as="targetPoint" />
            <mxPoint as="offset" />
          </mxGeometry>
        </mxCell>
        <mxCell id="mYKFRkc40-iws_3uBY47-15" value="&lt;p style=&quot;margin:0px;margin-top:4px;text-align:center;&quot;&gt;TextOutput&lt;/p&gt;&lt;hr&gt;&lt;hr&gt;+writeLines(lines : List&amp;lt;String&amp;gt;, outputName: String) : void&lt;div&gt;&lt;br&gt;&lt;/div&gt;" style="verticalAlign=top;align=left;overflow=fill;html=1;whiteSpace=wrap;" vertex="1" parent="1">
          <mxGeometry x="-460" y="850" width="290" height="70" as="geometry" />
        </mxCell>
        <mxCell id="mYKFRkc40-iws_3uBY47-16" value="" style="endArrow=block;dashed=1;endFill=0;endSize=12;html=1;rounded=0;exitX=0.5;exitY=0;exitDx=0;exitDy=0;entryX=0.5;entryY=1;entryDx=0;entryDy=0;" edge="1" parent="1" source="mYKFRkc40-iws_3uBY47-15" target="k9HfRmUis4oXZjniWQAY-8">
          <mxGeometry width="160" relative="1" as="geometry">
            <mxPoint x="-400" y="920" as="sourcePoint" />
            <mxPoint x="-300" y="800" as="targetPoint" />
          </mxGeometry>
        </mxCell>
        <mxCell id="mYKFRkc40-iws_3uBY47-17" value="" style="endArrow=diamondThin;endFill=0;endSize=24;html=1;rounded=0;fontSize=12;curved=1;entryX=-0.014;entryY=0.613;entryDx=0;entryDy=0;exitX=0.5;exitY=0;exitDx=0;exitDy=0;entryPerimeter=0;" edge="1" parent="1" source="k9HfRmUis4oXZjniWQAY-8" target="k9HfRmUis4oXZjniWQAY-28">
          <mxGeometry width="160" relative="1" as="geometry">
            <mxPoint x="-285.5" y="670" as="sourcePoint" />
            <mxPoint x="-424.5" y="510" as="targetPoint" />
          </mxGeometry>
        </mxCell>
        <mxCell id="mYKFRkc40-iws_3uBY47-21" value="" style="edgeStyle=none;curved=1;rounded=0;orthogonalLoop=1;jettySize=auto;html=1;fontSize=12;startSize=8;endSize=8;" edge="1" parent="1" source="k9HfRmUis4oXZjniWQAY-9" target="k9HfRmUis4oXZjniWQAY-6">
          <mxGeometry relative="1" as="geometry" />
        </mxCell>
        <mxCell id="k9HfRmUis4oXZjniWQAY-9" value="&lt;p style=&quot;margin:0px;margin-top:4px;text-align:center;&quot;&gt;TextInput&lt;/p&gt;&lt;hr&gt;&lt;hr&gt;&lt;div&gt;#setWordDelimiter(lineStorage : LineStorage) : void&lt;/div&gt;&lt;div&gt;#parseWords(text : String) : List&amp;lt;String.&amp;gt;&lt;/div&gt;" style="verticalAlign=top;align=left;overflow=fill;html=1;whiteSpace=wrap;" parent="1" vertex="1">
          <mxGeometry x="106.25" y="650" width="297.5" height="80" as="geometry" />
        </mxCell>
        <mxCell id="mYKFRkc40-iws_3uBY47-19" value="" style="endArrow=diamondThin;endFill=0;endSize=24;html=1;rounded=0;fontSize=12;curved=1;entryX=1;entryY=0.5;entryDx=0;entryDy=0;exitX=0;exitY=0.5;exitDx=0;exitDy=0;" edge="1" parent="1" source="k9HfRmUis4oXZjniWQAY-6" target="k9HfRmUis4oXZjniWQAY-28">
          <mxGeometry width="160" relative="1" as="geometry">
            <mxPoint x="20" y="741" as="sourcePoint" />
            <mxPoint x="313" y="540" as="targetPoint" />
          </mxGeometry>
        </mxCell>
        <mxCell id="mYKFRkc40-iws_3uBY47-23" value="Extends" style="endArrow=block;endSize=16;endFill=0;html=1;rounded=0;fontSize=12;curved=1;exitX=0.5;exitY=0;exitDx=0;exitDy=0;entryX=1;entryY=1;entryDx=0;entryDy=0;" edge="1" parent="1" source="mYKFRkc40-iws_3uBY47-13" target="k9HfRmUis4oXZjniWQAY-6">
          <mxGeometry width="160" relative="1" as="geometry">
            <mxPoint x="250" y="860" as="sourcePoint" />
            <mxPoint x="410" y="860" as="targetPoint" />
          </mxGeometry>
        </mxCell>
        <mxCell id="mYKFRkc40-iws_3uBY47-24" value="Strategy" style="rounded=0;whiteSpace=wrap;html=1;" vertex="1" parent="1">
          <mxGeometry x="-730" y="705" width="110" height="30" as="geometry" />
        </mxCell>
        <mxCell id="mYKFRkc40-iws_3uBY47-25" style="edgeStyle=none;curved=1;rounded=0;orthogonalLoop=1;jettySize=auto;html=1;entryX=-0.005;entryY=0.37;entryDx=0;entryDy=0;entryPerimeter=0;fontSize=12;startSize=8;endSize=8;" edge="1" parent="1" source="mYKFRkc40-iws_3uBY47-24" target="k9HfRmUis4oXZjniWQAY-8">
          <mxGeometry relative="1" as="geometry" />
        </mxCell>
        <mxCell id="mYKFRkc40-iws_3uBY47-27" style="edgeStyle=none;curved=1;rounded=0;orthogonalLoop=1;jettySize=auto;html=1;entryX=0.5;entryY=1;entryDx=0;entryDy=0;fontSize=12;startSize=8;endSize=8;" edge="1" parent="1" source="mYKFRkc40-iws_3uBY47-26" target="k9HfRmUis4oXZjniWQAY-12">
          <mxGeometry relative="1" as="geometry" />
        </mxCell>
        <mxCell id="mYKFRkc40-iws_3uBY47-26" value="Concrete Strategy" style="rounded=0;whiteSpace=wrap;html=1;" vertex="1" parent="1">
          <mxGeometry x="-670" y="990" width="110" height="30" as="geometry" />
        </mxCell>
        <mxCell id="mYKFRkc40-iws_3uBY47-29" style="edgeStyle=none;curved=1;rounded=0;orthogonalLoop=1;jettySize=auto;html=1;entryX=0.5;entryY=1;entryDx=0;entryDy=0;fontSize=12;startSize=8;endSize=8;" edge="1" parent="1" source="mYKFRkc40-iws_3uBY47-28" target="mYKFRkc40-iws_3uBY47-15">
          <mxGeometry relative="1" as="geometry" />
        </mxCell>
        <mxCell id="mYKFRkc40-iws_3uBY47-28" value="Concrete Strategy" style="rounded=0;whiteSpace=wrap;html=1;" vertex="1" parent="1">
          <mxGeometry x="-380" y="960" width="110" height="30" as="geometry" />
        </mxCell>
        <mxCell id="mYKFRkc40-iws_3uBY47-31" style="edgeStyle=none;curved=1;rounded=0;orthogonalLoop=1;jettySize=auto;html=1;entryX=0.5;entryY=1;entryDx=0;entryDy=0;fontSize=12;startSize=8;endSize=8;" edge="1" parent="1" source="mYKFRkc40-iws_3uBY47-30" target="k9HfRmUis4oXZjniWQAY-9">
          <mxGeometry relative="1" as="geometry" />
        </mxCell>
        <mxCell id="mYKFRkc40-iws_3uBY47-30" value="Concrete Strategy" style="rounded=0;whiteSpace=wrap;html=1;" vertex="1" parent="1">
          <mxGeometry x="200" y="760" width="110" height="30" as="geometry" />
        </mxCell>
        <mxCell id="mYKFRkc40-iws_3uBY47-33" style="edgeStyle=none;curved=1;rounded=0;orthogonalLoop=1;jettySize=auto;html=1;entryX=0.5;entryY=1;entryDx=0;entryDy=0;fontSize=12;startSize=8;endSize=8;" edge="1" parent="1" source="mYKFRkc40-iws_3uBY47-32" target="mYKFRkc40-iws_3uBY47-13">
          <mxGeometry relative="1" as="geometry" />
        </mxCell>
        <mxCell id="mYKFRkc40-iws_3uBY47-32" value="Concrete Strategy" style="rounded=0;whiteSpace=wrap;html=1;" vertex="1" parent="1">
          <mxGeometry x="423.75" y="910" width="110" height="30" as="geometry" />
        </mxCell>
        <mxCell id="mYKFRkc40-iws_3uBY47-35" style="edgeStyle=none;curved=1;rounded=0;orthogonalLoop=1;jettySize=auto;html=1;fontSize=12;startSize=8;endSize=8;" edge="1" parent="1" source="mYKFRkc40-iws_3uBY47-34" target="k9HfRmUis4oXZjniWQAY-6">
          <mxGeometry relative="1" as="geometry" />
        </mxCell>
        <mxCell id="mYKFRkc40-iws_3uBY47-34" value="Strategy" style="rounded=0;whiteSpace=wrap;html=1;" vertex="1" parent="1">
          <mxGeometry x="470" y="480" width="110" height="30" as="geometry" />
        </mxCell>
        <mxCell id="mYKFRkc40-iws_3uBY47-37" style="edgeStyle=none;curved=1;rounded=0;orthogonalLoop=1;jettySize=auto;html=1;fontSize=12;startSize=8;endSize=8;" edge="1" parent="1" source="mYKFRkc40-iws_3uBY47-36" target="k9HfRmUis4oXZjniWQAY-28">
          <mxGeometry relative="1" as="geometry" />
        </mxCell>
        <mxCell id="mYKFRkc40-iws_3uBY47-36" value="Context" style="rounded=0;whiteSpace=wrap;html=1;" vertex="1" parent="1">
          <mxGeometry x="-173.75" y="340" width="110" height="30" as="geometry" />
        </mxCell>
        <mxCell id="mYKFRkc40-iws_3uBY47-40" value="Use" style="endArrow=open;endSize=12;dashed=1;html=1;rounded=0;fontSize=12;curved=1;exitX=1;exitY=0.25;exitDx=0;exitDy=0;entryX=0;entryY=0.5;entryDx=0;entryDy=0;" edge="1" parent="1" source="k9HfRmUis4oXZjniWQAY-28" target="k9HfRmUis4oXZjniWQAY-20">
          <mxGeometry width="160" relative="1" as="geometry">
            <mxPoint x="150" y="770" as="sourcePoint" />
            <mxPoint x="310" y="770" as="targetPoint" />
          </mxGeometry>
        </mxCell>
        <mxCell id="mYKFRkc40-iws_3uBY47-44" value="&lt;p style=&quot;margin:0px;margin-top:4px;text-align:center;&quot;&gt;IndexerFactory&lt;/p&gt;&lt;hr&gt;&lt;hr&gt;+createIndexer(lineStorage : LineStorage,&amp;nbsp; ascending : boolean, hasFilters : boolean) : Indexer" style="verticalAlign=top;align=left;overflow=fill;html=1;whiteSpace=wrap;" vertex="1" parent="1">
          <mxGeometry x="-290" y="550" width="270" height="80" as="geometry" />
        </mxCell>
        <mxCell id="mYKFRkc40-iws_3uBY47-45" value="" style="endArrow=diamondThin;endFill=0;endSize=24;html=1;rounded=0;fontSize=12;curved=1;entryX=0.5;entryY=1;entryDx=0;entryDy=0;exitX=0.5;exitY=0;exitDx=0;exitDy=0;" edge="1" parent="1" source="mYKFRkc40-iws_3uBY47-44" target="k9HfRmUis4oXZjniWQAY-28">
          <mxGeometry width="160" relative="1" as="geometry">
            <mxPoint x="-280" y="761" as="sourcePoint" />
            <mxPoint x="-47" y="550" as="targetPoint" />
          </mxGeometry>
        </mxCell>
        <mxCell id="mYKFRkc40-iws_3uBY47-46" value="Use" style="endArrow=open;endSize=12;dashed=1;html=1;rounded=0;fontSize=12;curved=1;exitX=0.5;exitY=1;exitDx=0;exitDy=0;entryX=0;entryY=0.25;entryDx=0;entryDy=0;" edge="1" parent="1" source="mYKFRkc40-iws_3uBY47-44" target="JFAIEYtNB2LarUCZhCXe-1">
          <mxGeometry width="160" relative="1" as="geometry">
            <mxPoint x="-60" y="640" as="sourcePoint" />
            <mxPoint x="100" y="640" as="targetPoint" />
          </mxGeometry>
        </mxCell>
        <mxCell id="mYKFRkc40-iws_3uBY47-51" value="&lt;p style=&quot;margin:0px;margin-top:4px;text-align:center;&quot;&gt;SorterFactory&lt;/p&gt;&lt;hr&gt;&lt;hr&gt;+createSorter(shifter : Shifter, ascending : boolean): Sorter" style="verticalAlign=top;align=left;overflow=fill;html=1;whiteSpace=wrap;" vertex="1" parent="1">
          <mxGeometry x="885" y="230" width="270" height="80" as="geometry" />
        </mxCell>
        <mxCell id="mYKFRkc40-iws_3uBY47-52" value="" style="endArrow=diamondThin;endFill=0;endSize=24;html=1;rounded=0;fontSize=12;curved=1;entryX=1;entryY=0.25;entryDx=0;entryDy=0;exitX=0;exitY=0.5;exitDx=0;exitDy=0;" edge="1" parent="1" source="mYKFRkc40-iws_3uBY47-51" target="k9HfRmUis4oXZjniWQAY-28">
          <mxGeometry width="160" relative="1" as="geometry">
            <mxPoint x="1020" y="460" as="sourcePoint" />
            <mxPoint x="1056" y="400" as="targetPoint" />
          </mxGeometry>
        </mxCell>
        <mxCell id="mYKFRkc40-iws_3uBY47-53" value="Use" style="endArrow=open;endSize=12;dashed=1;html=1;rounded=0;fontSize=12;curved=1;exitX=0.5;exitY=1;exitDx=0;exitDy=0;" edge="1" parent="1" source="mYKFRkc40-iws_3uBY47-51" target="k9HfRmUis4oXZjniWQAY-18">
          <mxGeometry width="160" relative="1" as="geometry">
            <mxPoint x="520" y="440" as="sourcePoint" />
            <mxPoint x="1227" y="450" as="targetPoint" />
          </mxGeometry>
        </mxCell>
      </root>
    </mxGraphModel>
  </diagram>
</mxfile>
